<svg width="23" height="22" viewBox="0 0 23 22" fill="none" xmlns="http://www.w3.org/2000/svg">
<path fill-rule="evenodd" clip-rule="evenodd" d="M7.37067 0H15.5405C19.2999 0 22.3486 3.07862 22.3486 6.875V15.125C22.3486 18.9214 19.2999 22 15.5405 22H7.37067C3.6112 22 0.5625 18.9214 0.5625 15.125V6.875C0.5625 3.07862 3.6112 0 7.37067 0ZM15.5405 19.9375C18.1684 19.9375 20.3062 17.7787 20.3062 15.125V6.875C20.3062 4.22125 18.1684 2.0625 15.5405 2.0625H7.3707C4.74274 2.0625 2.60498 4.22125 2.60498 6.875V15.125C2.60498 17.7787 4.74274 19.9375 7.3707 19.9375H15.5405Z" fill="white"/>
<path fill-rule="evenodd" clip-rule="evenodd" d="M6.00903 11C6.00903 7.96263 8.44772 5.5 11.4556 5.5C14.4634 5.5 16.9021 7.96263 16.9021 11C16.9021 14.0374 14.4634 16.5 11.4556 16.5C8.44772 16.5 6.00903 14.0374 6.00903 11ZM8.05151 11C8.05151 12.8948 9.57925 14.4375 11.4556 14.4375C13.3319 14.4375 14.8596 12.8948 14.8596 11C14.8596 9.10388 13.3319 7.5625 11.4556 7.5625C9.57925 7.5625 8.05151 9.10388 8.05151 11Z" fill="white"/>
<ellipse cx="17.3105" cy="5.08749" rx="0.725769" ry="0.73288" fill="white"/>
</svg>
