<svg xmlns="http://www.w3.org/2000/svg" xmlns:xlink="http://www.w3.org/1999/xlink" version="1.1" x="0px" y="0px"
    viewBox="0 0 32 40" enable-background="new 0 0 32 32" xml:space="preserve">
    <title>Logo - four wavy lines in turquoise palette </title>
    <g>
        <g>
            <path fill="#14e4cd"
                d="M28.4,9.5c-1,0-1.9-0.4-2.6-1.1c-0.8-0.8-2.2-0.8-3.1,0c-1.4,1.4-3.8,1.4-5.2,0c-0.9-0.9-2.2-0.8-3.1,0    c-1.4,1.4-3.8,1.4-5.2,0C8.4,7.5,7,7.5,6.2,8.4C4.8,9.8,2.4,9.8,1,8.4L2,7.3c0.8,0.8,2.3,0.8,3.1,0c1.4-1.4,3.8-1.4,5.2,0    c0.8,0.8,2.3,0.8,3.1,0c1.4-1.4,3.8-1.4,5.2,0c0.8,0.8,2.3,0.8,3.1,0c1.4-1.4,3.8-1.4,5.2,0c0.8,0.8,2.3,0.8,3.1,0L31,8.4    C30.3,9.1,29.4,9.5,28.4,9.5z" />
        </g>
        <g>
            <path fill="#10e4e9"
                d="M28.4,14.9c-1,0-1.9-0.4-2.6-1.1c-0.8-0.8-2.2-0.8-3.1,0c-1.4,1.4-3.8,1.4-5.2,0c-0.9-0.8-2.2-0.8-3.1,0    c-1.4,1.4-3.8,1.4-5.2,0C8.4,13,7,13,6.2,13.8c-1.4,1.4-3.8,1.4-5.2,0L2,12.8c0.8,0.8,2.3,0.8,3.1,0c1.4-1.4,3.8-1.4,5.2,0    c0.8,0.8,2.3,0.8,3.1,0c1.4-1.4,3.8-1.4,5.2,0c0.8,0.8,2.3,0.8,3.1,0c1.4-1.4,3.8-1.4,5.2,0c0.8,0.8,2.3,0.8,3.1,0l1.1,1.1    C30.3,14.5,29.4,14.9,28.4,14.9z" />
        </g>
        <g>
            <path fill="#12c4e7"
                d="M28.4,20.3c-1,0-1.9-0.4-2.6-1.1c-0.8-0.8-2.2-0.8-3.1,0c-1.4,1.4-3.8,1.4-5.2,0c-0.9-0.8-2.2-0.8-3.1,0    c-1.4,1.4-3.8,1.4-5.2,0c-0.8-0.8-2.2-0.8-3.1,0c-1.4,1.4-3.8,1.4-5.2,0L2,18.2c0.8,0.8,2.3,0.8,3.1,0c1.4-1.4,3.8-1.4,5.2,0    c0.8,0.8,2.3,0.8,3.1,0c1.4-1.4,3.8-1.4,5.2,0c0.8,0.8,2.3,0.8,3.1,0c1.4-1.4,3.8-1.4,5.2,0c0.8,0.8,2.3,0.8,3.1,0l1.1,1.1    C30.3,19.9,29.4,20.3,28.4,20.3z" />
        </g>
        <g>
            <path fill="#16a6e3"
                d="M28.4,25.8c-1,0-1.9-0.4-2.6-1.1c-0.8-0.8-2.2-0.8-3.1,0c-1.4,1.4-3.8,1.4-5.2,0c-0.9-0.8-2.2-0.8-3.1,0    c-1.4,1.4-3.8,1.4-5.2,0c-0.8-0.8-2.2-0.8-3.1,0c-1.4,1.4-3.8,1.4-5.2,0L2,23.6c0.8,0.8,2.3,0.8,3.1,0c1.4-1.4,3.8-1.4,5.2,0    c0.8,0.8,2.3,0.8,3.1,0c1.4-1.4,3.8-1.4,5.2,0c0.8,0.8,2.3,0.8,3.1,0c1.4-1.4,3.8-1.4,5.2,0c0.8,0.8,2.3,0.8,3.1,0l1.1,1.1    C30.3,25.4,29.4,25.8,28.4,25.8z" />
        </g>
    </g>
</svg>