<svg width="22" height="18" viewBox="0 0 22 18" fill="none" xmlns="http://www.w3.org/2000/svg">
<path d="M21.9514 2.11613C21.1412 2.475 20.2779 2.71288 19.3779 2.82838C20.3038 2.27013 21.0105 1.39287 21.3427 0.3355C20.4794 0.85525 19.5263 1.22238 18.5105 1.42725C17.6908 0.545875 16.5225 0 15.2481 0C12.7753 0 10.7846 2.02675 10.7846 4.51137C10.7846 4.86888 10.8146 5.21263 10.8881 5.53988C7.17495 5.357 3.88934 3.55988 1.68214 0.82225C1.2968 1.49738 1.07077 2.27012 1.07077 3.102C1.07077 4.664 1.86732 6.04862 3.05466 6.85025C2.33708 6.8365 1.63312 6.62613 1.03673 6.29475C1.03673 6.3085 1.03673 6.32638 1.03673 6.34425C1.03673 8.536 2.5849 10.3565 4.61509 10.7759C4.25153 10.8763 3.8553 10.9244 3.44409 10.9244C3.15814 10.9244 2.86948 10.9079 2.59852 10.8474C3.17721 12.6335 4.81933 13.9466 6.77191 13.9893C5.25233 15.1896 3.3229 15.9129 1.23416 15.9129C0.867884 15.9129 0.516584 15.8964 0.165283 15.851C2.14373 17.1394 4.48846 17.875 7.017 17.875C15.2358 17.875 19.7292 11 19.7292 5.04075C19.7292 4.84137 19.7224 4.64887 19.7128 4.45775C20.5993 3.8225 21.3441 3.02913 21.9514 2.11613Z" fill="white"/>
</svg>
